<svg xmlns="http://www.w3.org/2000/svg" version="1.1" xmlns:xlink="http://www.w3.org/1999/xlink" xmlns:svgjs="http://svgjs.com/svgjs" width="512" height="512" x="0" y="0" viewBox="0 0 60 60" style="enable-background:new 0 0 512 512" xml:space="preserve" class=""><g><g fill="#bfbfbf" fill-rule="nonzero"><path d="M9 54H6v-3a1 1 0 0 0-2 0v4a1 1 0 0 0 1 1h4a1 1 0 0 0 0-2z" fill="#bfbfbf" data-original="#bfbfbf" class=""></path><path d="M54 11a6.006 6.006 0 0 0-5.91 5H31.911A28.151 28.151 0 0 0 25.5.684a2.05 2.05 0 0 0-2.989-.007 27.17 27.17 0 0 0-4.476 7.393 26.931 26.931 0 0 0-3.542-5.4 2.055 2.055 0 0 0-2.986 0A28.548 28.548 0 0 0 5.343 16H4a4 4 0 0 0-4 4v36a4 4 0 0 0 4 4h50a6.006 6.006 0 0 0 6-6V17a6.006 6.006 0 0 0-6-6zm0 2a4 4 0 0 1 4 4v32.54a5.965 5.965 0 0 0-8 0V17a4 4 0 0 1 4-4zm-10 5h4v36c0 1.478.55 2.904 1.541 4H24v-3a2 2 0 0 1 2-2h8c5.52-.006 9.994-4.48 10-10zM23.992 2A25.7 25.7 0 0 1 30 18c0 5.774-1.81 9.3-5 9.9V24a1 1 0 0 0-2 0v3.9a4.769 4.769 0 0 1-2.854-1.721c.61-2.001.899-4.087.854-6.179a25.712 25.712 0 0 0-1.8-9.31A26.382 26.382 0 0 1 23.992 2zM13 4a25.906 25.906 0 0 1 4.255 7.162l.008.018A23.855 23.855 0 0 1 19 20c0 5.774-1.81 9.3-5 9.9v-3.486l2.707-2.707a1 1 0 0 0-1.414-1.414L13 24.586l-2.293-2.293a1 1 0 0 0-1.414 1.414L12 26.414V29.9c-3.19-.6-5-4.125-5-9.9a25.871 25.871 0 0 1 6-16zM2 56V20a2 2 0 0 1 2-2h1.09A23.76 23.76 0 0 0 5 20c0 9.591 4.541 11.561 7 11.923V42a1 1 0 0 0 2 0V31.923a7.151 7.151 0 0 0 5.279-3.751A6.654 6.654 0 0 0 23 29.929V40a1 1 0 0 0 2 0V29.923c2.459-.362 7-2.332 7-11.923h3v25a2 2 0 0 1-2 2h-8c-5.52.006-9.994 4.48-10 10v3H4a2 2 0 0 1-2-2zm15 2v-3a8.009 8.009 0 0 1 8-8h8a4 4 0 0 0 4-4V18h5v25a8.009 8.009 0 0 1-8 8h-8a4 4 0 0 0-4 4v3zm37 0a4 4 0 1 1 0-8 4 4 0 0 1 0 8z" fill="#bfbfbf" data-original="#bfbfbf" class=""></path></g></g></svg>