<svg xmlns="http://www.w3.org/2000/svg" version="1.1" xmlns:xlink="http://www.w3.org/1999/xlink" xmlns:svgjs="http://svgjs.com/svgjs" width="512" height="512" x="0" y="0" viewBox="0 0 512.003 512.003" style="enable-background:new 0 0 512 512" xml:space="preserve" class=""><g><path d="M36.236 492H36c-5.522 0-10 4.478-10 10s4.477 10 10 10h.236c5.523 0 10-4.478 10-10s-4.477-10-10-10zM476.003 492h-.238c-5.522 0-10 4.478-10 10s4.478 10 10 10h.238c5.523 0 10-4.478 10-10s-4.477-10-10-10zM447.035 492h-21.034v-29.998c0-5.522-4.477-10-10-10h-29.999v-30.003c0-5.522-4.477-10-10-10h-30.717l-25.31-338.94a9.993 9.993 0 0 0-2.339-5.715l-54-63.808c-.061-.071-.128-.134-.189-.203a9.664 9.664 0 0 0-.381-.405 9.62 9.62 0 0 0-.391-.366c-.072-.065-.137-.136-.213-.199-.041-.035-.085-.063-.127-.097a9.532 9.532 0 0 0-.473-.361c-.111-.081-.221-.162-.334-.237a9.9 9.9 0 0 0-.49-.301c-.124-.072-.247-.146-.373-.213-.155-.081-.313-.154-.472-.228-.143-.066-.284-.133-.43-.191-.147-.06-.297-.111-.446-.164-.158-.056-.316-.112-.477-.159-.146-.043-.292-.077-.438-.113-.166-.041-.331-.083-.499-.115a8.773 8.773 0 0 0-.455-.071c-.162-.024-.324-.049-.488-.064-.165-.016-.33-.022-.496-.03a6.8 6.8 0 0 0-.451-.019c-.182 0-.363.01-.544.02-.134.007-.268.012-.403.024-.191.018-.383.046-.573.075-.124.019-.249.035-.372.059a9.4 9.4 0 0 0-.57.132c-.123.031-.248.06-.371.096a9.053 9.053 0 0 0-.527.177c-.135.048-.27.094-.401.146-.155.063-.308.135-.46.206-.15.069-.3.139-.447.216a8.176 8.176 0 0 0-.383.219 9.055 9.055 0 0 0-.486.299c-.111.073-.218.152-.326.23a9.479 9.479 0 0 0-.486.372c-.039.032-.082.059-.121.092-.07.059-.132.127-.201.189a9.737 9.737 0 0 0-.407.382 9.62 9.62 0 0 0-.366.391c-.064.072-.135.137-.198.212l-53.997 63.808a10.005 10.005 0 0 0-2.34 5.715l-25.31 338.941h-30.722c-5.523 0-10 4.478-10 10v30.003h-30c-5.523 0-10 4.478-10 10v29.998H64.966c-5.522 0-10 4.478-10 10s4.478 10 10 10h382.068c5.523 0 10-4.478 10-10 .001-5.524-4.476-10.002-9.999-10.002zM211.734 77.784l44.268-52.31 44.27 52.31 24.957 334.213h-59.227V127.212c0-5.522-4.478-10-10-10-5.523 0-10 4.478-10 10v284.786h-59.226l24.958-334.214zm-65.735 354.214h220.002v20.003H145.999v-20.003zM406.001 492H105.999v-19.998H406V492z" fill="#6C737E" data-original="#6C737E" class=""></path><path d="M256.002 108.483c5.522 0 10-4.478 10-10v-.236c0-5.522-4.478-10-10-10-5.523 0-10 4.478-10 10v.236c0 5.523 4.476 10 10 10z" fill="#6C737E" data-original="#6C737E" class=""></path></g></svg>