<svg xmlns="http://www.w3.org/2000/svg" version="1.1" xmlns:xlink="http://www.w3.org/1999/xlink" xmlns:svgjs="http://svgjs.com/svgjs" width="512" height="512" x="0" y="0" viewBox="0 0 512 512" style="enable-background:new 0 0 512 512" xml:space="preserve" class=""><g><path d="M252.079 253.522c-4.688-2.921-10.855-1.488-13.774 3.201l-3.352 5.38c-3.994 6.413-10.889 10.241-18.443 10.241h-11.716c-5.523 0-10 4.477-10 10s4.477 10 10 10h11.716c14.507 0 27.748-7.352 35.419-19.666l3.352-5.38c2.918-4.69 1.485-10.856-3.202-13.776zM248.162 395.46c-2.773-4.775-8.893-6.398-13.668-3.626l-.045.026c-4.776 2.773-6.377 8.88-3.604 13.655 1.854 3.192 5.213 4.97 8.663 4.97a9.991 9.991 0 0 0 5.029-1.357c4.774-2.773 6.398-8.892 3.625-13.668zM377.439 491.999h-.192c-5.523 0-10 4.477-10 10s4.477 10 10 10h.192c5.523 0 10-4.477 10-10-.001-5.523-4.478-10-10-10z" fill="#6C737E" data-original="#6C737E" class=""></path><path d="m337.659 272.257 8.296-8.958a45.544 45.544 0 0 0 12.167-31.039v-22.322c0-15.154-10.217-28.501-24.846-32.457l-41.485-11.218v-14.73a72.077 72.077 0 0 0 7.32-8.59c11.055-15.2 17.142-35.244 17.142-56.439 0-28.47-10.637-56.118-27.781-72.278-10.869-11.703-30.293-16.61-52.087-13.129-14.416 2.302-31.58 8.967-40.199 20.969-15.68 2.355-27.654 10.406-33.29 22.579-6.216 13.426-3.763 29.713 6.683 45.079 1.82 28.824 20.766 41.093 34.401 44.666 4.617 8.409 10.335 15.441 16.812 20.87v12.516l-63.713 29.846c-15.54 7.279-25.581 23.07-25.581 40.23v41.507c0 12.489 10.161 22.648 22.648 22.648h15.215l8.912 33.666c-4.945 12.377-22.145 57.21-22.145 81.996 0 20.552 17.264 54.467 28.48 74.33h-50.045c-5.523 0-10 4.477-10 10s4.477 10 10 10H348.12c5.523 0 10-4.477 10-10s-4.477-10-10-10h-16.946c8.86-25.413 25.019-80.03 14.528-115.188-5.021-16.827-23.383-42.746-30.223-52.043l3.845-42.017c6.979-1.547 13.414-5.182 18.335-10.494zm-41.913-195.5c.334 3.226.507 6.486.507 9.749 0 17.001-4.729 32.868-13.317 44.676-7.89 10.849-18.075 16.823-28.681 16.823-11.645 0-22.788-7.302-30.746-19.853 8.191-7.575 16.432-19.489 15.711-33.542 14.404-3.482 25.159-15.352 30.476-33.863 10.301 3.651 20.532 11.241 26.05 16.01zm-77.127 2.99a10.006 10.006 0 0 0-.925 9.956c5.146 11.199-4.253 20.913-9.371 25.132-6.134-1.792-18.496-7.967-18.877-28.67a9.998 9.998 0 0 0-1.975-5.785c-7.475-10.046-9.817-20.008-6.426-27.333 3.092-6.68 11.052-10.907 21.838-11.599a10.003 10.003 0 0 0 8.496-5.911c2.429-5.455 12.882-12.252 28.16-14.692a64.924 64.924 0 0 1 10.203-.831c10.594 0 19.571 2.843 24.205 7.962.191.211.392.415.601.609 5.093 4.74 9.49 11.04 12.967 18.308-7.418-3.965-15.881-7.244-24.47-8.049-5.246-.483-9.968 3.166-10.806 8.364-2.22 13.766-8.28 29.852-24.54 28.36a9.986 9.986 0 0 0-9.08 4.179zm98.213 282.977c4.382 7.321 8.124 14.498 9.708 19.806 9.76 32.712-9.642 90.491-16.634 109.471h-82.375c53.261-26.881 74.895-66.134 83.542-96.267 3.411-11.889 5.079-23.137 5.759-33.01zm-5.135-99.125h-42.076c-5.523 0-10 4.477-10 10s4.477 10 10 10h29.546l-3.872 42.312c-1.072 3.641-9.13 27.778-39.611 51.68-4.346 3.408-5.107 9.694-1.699 14.039 3.408 4.347 9.695 5.106 14.039 1.699 12.485-9.791 21.752-19.682 28.594-28.65-.719 7.786-2.16 16.451-4.768 25.539-11.99 41.779-42.288 72.506-90.087 91.442-7.602-13.556-16.771-31.494-21.825-46.249 14.045-3.873 27.302-8.467 39.494-13.726 5.071-2.188 7.409-8.072 5.221-13.142-2.188-5.072-8.073-7.408-13.143-5.221-10.905 4.704-22.757 8.85-35.336 12.384.936-20.893 15.956-61.293 21.857-75.535a10 10 0 0 0 .429-6.388l-18.07-68.265c-1.185-4.478-5.227-7.426-9.65-7.431a10.195 10.195 0 0 0-1.827.165c-4.878.83-9.366 4.846-9.366 9.759v13.999h-5.401a2.652 2.652 0 0 1-2.649-2.649v-41.507c0-9.436 5.521-18.117 14.065-22.12l66.154-30.989c5.513-2.583 9.076-8.186 9.076-14.273v-4.378a48.662 48.662 0 0 0 13.462 1.91c6.044 0 11.927-1.125 17.536-3.259v1.817c0 8.838 5.959 16.623 14.491 18.931l41.772 11.296a13.647 13.647 0 0 1 10.067 13.15v22.322a25.603 25.603 0 0 1-6.839 17.449l-8.296 8.957a15.428 15.428 0 0 1-11.288 4.932z" fill="#6C737E" data-original="#6C737E" class=""></path></g></svg>